<?xml version="1.0" standalone="no"?>
<!DOCTYPE svg PUBLIC "-//W3C//DTD SVG 20010904//EN"
 "http://www.w3.org/TR/2001/REC-SVG-20010904/DTD/svg10.dtd">
<svg version="1.0" xmlns="http://www.w3.org/2000/svg"
 width="400.000000pt" height="400.000000pt" viewBox="0 0 400.000000 400.000000"
 preserveAspectRatio="xMidYMid meet">

<g transform="translate(0.000000,400.000000) scale(0.100000,-0.100000)"
fill="#000000" stroke="none">
<path d="M0 2000 l0 -2000 2000 0 2000 0 0 2000 0 2000 -2000 0 -2000 0 0
-2000z m2304 1570 c445 -89 834 -360 1065 -743 96 -160 164 -338 203 -532 32
-158 32 -432 0 -590 -87 -436 -324 -792 -690 -1038 -462 -310 -1070 -352
-1577 -107 -462 223 -786 652 -881 1165 -28 148 -26 422 4 570 86 433 326 794
687 1036 209 140 460 230 735 263 83 10 358 -4 454 -24z"/>
<path d="M1810 3530 c-350 -48 -645 -195 -895 -445 -128 -127 -214 -243 -283
-380 -79 -159 -79 -160 32 -50 152 151 329 261 506 316 104 32 237 33 297 1
51 -27 90 -76 110 -139 19 -63 19 -255 -1 -438 -9 -77 -27 -243 -41 -370 -46
-406 -43 -710 5 -710 21 0 72 109 124 264 38 116 88 329 189 815 9 44 19 64
39 79 25 19 29 19 51 4 28 -18 37 -75 37 -251 1 -133 16 -445 26 -504 4 -24
11 -41 17 -39 27 9 81 231 151 612 72 394 81 433 100 454 9 10 16 23 16 30 0
24 88 98 160 133 103 50 176 68 307 75 130 7 183 -4 237 -49 111 -91 36 -290
-208 -548 -34 -36 -75 -80 -91 -99 l-30 -33 111 7 c126 7 249 -6 330 -36 103
-39 185 -140 215 -265 24 -99 24 -99 55 -101 16 -2 58 7 94 20 l65 23 3 88 c5
165 -39 406 -107 573 -79 199 -186 359 -346 518 -223 223 -475 361 -780 425
-114 24 -386 35 -495 20z"/>
<path d="M1234 2936 c-250 -57 -583 -333 -691 -574 -34 -76 -42 -185 -19 -246
34 -90 166 -181 278 -192 72 -8 79 -10 71 -30 -5 -14 -18 -16 -84 -12 -106 6
-205 54 -280 136 l-52 57 6 -140 c11 -224 55 -399 152 -602 78 -164 161 -280
300 -418 224 -224 473 -359 785 -426 152 -33 448 -33 600 0 312 67 561 202
785 426 183 183 295 362 375 604 36 108 70 261 70 318 0 22 -2 23 -22 12 -13
-7 -54 -22 -92 -35 l-69 -22 -23 -101 c-34 -150 -86 -244 -199 -356 -96 -95
-195 -161 -316 -209 -127 -49 -192 -60 -359 -60 -140 1 -164 3 -245 28 -105
32 -170 66 -231 119 -55 49 -76 87 -76 142 0 138 174 251 517 334 50 12 97 26
104 30 18 11 33 375 29 701 l-3 245 30 0 c37 0 42 -19 52 -205 l8 -135 75 78
c97 101 182 215 222 296 42 84 46 166 9 205 -45 48 -127 57 -259 30 -161 -33
-312 -113 -312 -166 0 -11 -8 -22 -20 -25 -23 -6 -24 -10 -45 -148 -9 -55 -34
-199 -56 -320 -97 -536 -152 -695 -237 -695 -68 0 -88 74 -102 375 -5 104 -9
201 -10 214 0 13 -2 22 -5 19 -3 -2 -27 -110 -55 -239 -86 -404 -176 -647
-255 -689 -34 -18 -83 -15 -107 7 -34 31 -49 71 -59 166 -13 112 -3 262 48
712 26 231 36 367 37 490 1 163 0 172 -24 219 -41 81 -125 109 -246 82z"/>
<path d="M2670 2212 l-45 -7 -2 -60 c-2 -33 -7 -134 -13 -224 -7 -108 -7 -168
-1 -174 7 -7 63 -1 163 17 84 15 227 37 318 49 l165 23 -2 54 c-4 126 -71 236
-177 290 -69 35 -69 35 -215 36 -80 1 -166 -1 -191 -4z"/>
<path d="M3105 1768 c-70 -10 -450 -76 -481 -83 -13 -3 -24 -17 -30 -37 -13
-43 -49 -51 -66 -14 -13 31 -12 30 -92 11 -256 -65 -442 -168 -461 -255 -17
-79 38 -152 158 -209 125 -60 202 -75 354 -69 144 6 245 32 364 94 125 66 258
189 324 300 28 48 70 170 79 232 l6 42 -47 -1 c-27 -1 -75 -6 -108 -11z"/>
</g>
</svg>
